<?xml version="1.0" encoding="utf-8"?>
<!-- Generator: Adobe Illustrator 16.0.0, SVG Export Plug-In . SVG Version: 6.00 Build 0)  -->
<!DOCTYPE svg PUBLIC "-//W3C//DTD SVG 1.1//EN" "http://www.w3.org/Graphics/SVG/1.1/DTD/svg11.dtd">
<svg version="1.1" id="Layer_1" xmlns="http://www.w3.org/2000/svg" xmlns:xlink="http://www.w3.org/1999/xlink" x="0px" y="0px"
	 width="500px" height="500px" viewBox="0 0 500 500" enable-background="new 0 0 500 500" xml:space="preserve">
<ellipse fill="#8AD1CA" stroke="#000000" stroke-width="4" stroke-miterlimit="10" cx="235.675" cy="236.306" rx="163.136" ry="165.254"/>
<g>
	<path fill="#87C540" d="M89.971,176.073c32.974,0,69.419-6.678,79.832,30.045c1.736,8.346,0,16.693,5.208,23.37
		c5.204,5.007,17.356,8.346,22.559,11.685c17.356,8.346,22.563,15.022,39.918,16.692c-10.413,23.368-32.974,21.699-27.768,50.077
		c3.472,21.699,13.885,33.384,26.032,51.747c12.15,18.36,17.355,35.052-8.677,36.722c-20.825,1.669-36.444,0-52.063-10.016
		c-34.711-20.032-67.686-40.062-81.569-80.123c-6.942-20.03-10.413-40.062-10.413-61.762c-1.735-20.031-5.207-40.061,3.471-60.092
		C86.5,181.079,88.235,177.741,89.971,176.073"/>
	<g>
		<path d="M89.971,178.573c27.036-0.068,65.184-6.647,76.569,25.469c2.959,8.347,0.885,17.38,5.359,25.351
			c3.519,6.266,13.301,8.748,19.42,11.409c8.035,3.492,15.532,8.222,23.193,12.446c7.241,3.993,14.761,6.225,22.974,7.117
			c-0.72-1.254-1.439-2.508-2.158-3.762c-4.207,9.07-11.094,15.064-18.305,21.668c-6.054,5.545-9.891,11.885-10.526,20.183
			c-0.88,11.502,3.637,23.992,8.751,34.079c5.716,11.275,13.847,21.154,20.534,31.838c3.768,6.019,11.302,17.837,5.519,24.714
			c-3.243,3.855-9.608,4.466-14.228,4.826c-7.105,0.555-14.206,0.764-21.317,0.222c-13.6-1.037-24.439-6.934-35.968-13.657
			c-10.583-6.171-21.029-12.588-30.918-19.83c-11.57-8.474-22.108-18.459-30.38-30.213c-9.231-13.116-14.429-28.288-18.155-43.763
			c-4.227-17.556-4.125-35.247-5.842-53.085c-0.875-9.094-1.477-18.186-0.809-27.314c0.346-4.725,1.303-9.352,2.581-13.903
			c0.699-2.491,1.654-4.898,2.645-7.284c1.115-2.687,0.698-4.851,2.829-7.243c2.137-2.398-1.386-5.948-3.535-3.535
			c-4.019,4.511-5.003,11.11-6.76,16.733c-2.263,7.245-2.957,14.965-3.081,22.516c-0.12,7.296,0.608,14.599,1.306,21.852
			c0.762,7.917,0.844,15.814,1.404,23.744c1.876,26.562,8.991,54.355,24.776,76.154c13.877,19.165,33.721,32.854,53.725,44.936
			c10.372,6.264,20.707,13.146,32.443,16.529c12.22,3.521,25.63,3.204,38.15,1.856c11.745-1.265,20.073-7.948,17.453-20.353
			c-1.418-6.713-5.313-13.007-8.96-18.699c-5.036-7.857-10.655-15.321-15.545-23.275c-4.911-7.987-8.424-16.502-10.38-25.675
			c-1.63-7.643-2.23-15.473,2.043-22.343c3.094-4.974,8.271-8.608,12.518-12.528c5.157-4.759,9.392-10.246,12.35-16.625
			c0.847-1.823-0.191-3.548-2.158-3.762c-17.581-1.91-31.446-13.746-47.346-20.464c-3.806-1.608-7.588-3.242-11.105-5.425
			c-5.054-3.138-5.379-9.743-5.769-15.073c-0.604-8.262-2.631-15.642-7.182-22.634c-15.862-24.372-51.534-18.257-76.115-18.195
			C86.747,173.581,86.747,178.581,89.971,178.573L89.971,178.573z"/>
	</g>
</g>
<g>
	<path fill="#87C540" d="M173.276,171.064c5.205,13.354,12.147,38.393,22.56,48.408c6.942,5.008,22.561,5.008,29.504,10.016
		c10.411,5.007,17.355,13.353,26.031,18.362c19.091,10.016,25.872-11.384,15.459-26.407c-10.411-15.021-31.067-23.669-20.669-50.367
		c-0.802,2.06,35.718,16.337,39.048,19.31c10.59,9.459,12.106,21.75,24.437,30.765c1.636,6.039,8.041,16.255,9.879,24.498
		c2.635,11.813-2.795,26.905,8.164,34.136c14.212,9.376,25.931-68.944,29.04-74.548c6.439-11.604,2.866-10.664,12.988-1.482
		c10.263,9.312,10.133,36.76,29.094,32.552c-3.472-13.353-12.069-46.88-20.749-55.227c-8.676-6.677-13.883-8.345-20.825-16.691
		c-1.735-1.669-6.941-8.346-6.941-11.685c-1.736-5.007,6.941-6.677,5.206-10.015c-3.47-10.016-10.413-15.024-19.091-20.031
		c-10.411-6.678-8.677-6.678-17.354-16.692c-10.412-11.685-29.502-20.031-45.122-25.039c-29.505-10.016-64.214-3.338-91.983,10.015
		c-17.354,6.677-32.973,18.361-46.857,31.716c-8.678,10.015-38.181,23.369-36.446,38.392c12.15,0,27.768-5.007,41.652-5.007
		c10.413,0,13.884,0,20.826,5.007c6.941,3.339,5.206,10.016,13.885,10.016"/>
	<g>
		<path d="M170.865,171.729c3.756,9.759,6.806,19.779,10.958,29.388c3.393,7.852,7.724,18.803,16.192,22.37
			c4.885,2.058,10.132,2.982,15.274,4.165c5.54,1.274,10.179,3.446,15.053,6.326c9.663,5.708,17.116,15.815,28.388,18.535
			c6.951,1.678,13.795-1.897,16.201-8.646c2.845-7.981,0.604-16.808-3.943-23.686c-4.713-7.13-11.598-12.556-16.939-19.181
			c-7.133-8.847-7.331-18.895-3.477-29.26c-1.637-0.222-3.274-0.443-4.911-0.665c-0.306,3.938,8.862,6.77,11.387,7.941
			c7.499,3.479,15.126,6.674,22.618,10.168c1.804,0.841,4.41,1.858,5.775,2.969c5.037,4.1,8.239,10.174,11.536,15.641
			c2.902,4.813,6.163,9.272,10.33,13.069c3.719,3.389,5.211,9.067,7.364,13.659c2.699,5.756,4.788,11.315,5.132,17.706
			c0.302,5.601-0.104,11.156,0.664,16.735c0.786,5.719,5.604,15.135,12.692,13.985c4.276-0.693,6.962-5.336,8.783-8.807
			c3.243-6.182,5.323-13.019,7.27-19.693c3.036-10.408,5.385-21.01,7.718-31.593c1.7-7.711,3.175-14.593,6.451-21.133
			c0.476-0.948,0.941-1.895,1.485-2.806c-0.806,1.349-2.421-0.755-0.313,1.333c2.364,2.34,4.952,4.563,7.104,7.095
			c3.527,4.153,5.241,9.998,7.35,14.924c4.288,10.021,10.304,18.801,22.468,16.449c1.352-0.261,2.067-1.836,1.746-3.075
			c-2.46-9.462-5.003-18.9-8.002-28.208c-2.832-8.791-5.892-18.451-11.499-25.928c-2.751-3.668-7.077-5.998-10.834-8.509
			c-4.929-3.294-8.963-7.059-12.898-11.472c-2.463-2.762-7.52-8.749-3.969-12.129c2.185-2.079,5.079-3.914,3.893-7.372
			c-3.962-11.547-13.178-16.848-22.795-23.193c-8.236-5.434-12.972-14.278-20.55-20.507c-9.607-7.897-21.318-13.092-32.892-17.382
			c-12.688-4.703-25.544-7.302-39.097-7.336c-17.282-0.044-34.534,4.04-50.578,10.25c-16.482,6.38-31.732,14.405-45.575,25.446
			c-5.745,4.582-10.791,9.845-16.276,14.69c-4.799,4.239-10.297,7.713-15.433,11.523c-7.973,5.913-19.407,14.287-18.569,25.534
			c0.1,1.341,1.062,2.523,2.5,2.5c16.513-0.262,32.288-5.589,48.946-4.9c5.853,0.242,12.748,3.233,16.321,8.004
			c3.151,4.208,5.537,6.649,11.097,6.912c3.225,0.152,3.21-4.849,0-5c-5.874-0.277-7.733-7.004-12.623-9.674
			c-5.099-2.784-8.834-4.85-14.794-5.241c-16.658-1.093-32.444,4.638-48.946,4.9c0.833,0.833,1.667,1.667,2.5,2.5
			c-0.716-9.613,10.379-16.979,17.11-21.971c7.89-5.852,15.229-11.59,22.433-18.251c21.472-19.855,48.561-33.354,77.129-39.514
			c28.612-6.169,56.688-0.641,82.169,13.295c5.571,3.047,10.797,6.689,15.374,11.097c3.68,3.544,6.52,7.857,9.952,11.625
			c7.294,8.007,18.48,10.768,24.801,19.969c1.085,1.58,3.936,5.373,2.274,6.937c-1.405,1.324-2.809,2.396-3.93,3.998
			c-2.188,3.127-0.088,7.725,1.492,10.59c5.233,9.497,14.309,15.596,22.976,21.581c8.712,6.015,11.843,17.467,15.05,27.076
			c3.236,9.7,5.851,19.598,8.421,29.491c0.582-1.025,1.164-2.05,1.746-3.075c-9.727,1.88-13.772-6.916-16.961-14.486
			c-1.496-3.553-2.912-7.138-4.685-10.566c-2.074-4.01-5.038-6.775-8.216-9.905c-1.9-1.872-3.626-4.397-6.442-4.737
			c-2.837-0.342-4.364,4.173-5.28,6.002c-2.234,4.459-3.525,8.266-4.635,13.132c-3.381,14.838-6.371,29.779-10.903,44.325
			c-1.895,6.084-3.987,12.431-7.64,17.718c-4.743,6.865-9.21-2.895-10.095-7.744c-1.203-6.591,0.104-13.438-0.904-20.072
			c-1.057-6.958-4.329-13.301-7.298-19.605c-1.198-2.546-1.88-5.673-3.282-8.068c-0.882-1.505-2.844-2.454-4.128-3.624
			c-1.672-1.523-3.14-3.297-4.502-5.094c-4.106-5.415-6.889-11.711-11.122-17.046c-5.748-7.243-13.114-9.889-21.375-13.555
			c-4.659-2.067-9.326-4.118-13.951-6.263c-1.938-0.899-3.861-1.827-5.754-2.815c-0.676-0.353-1.339-0.729-1.993-1.122
			c-1.276-0.766-0.219-0.575-0.318,0.706c0.233-2.998-3.991-3.138-4.911-0.665c-3.031,8.154-4.108,16.673-0.827,24.915
			c2.824,7.093,8.409,12.638,13.626,18.021c5.844,6.031,11.59,12.326,12.563,21.043c0.982,8.812-4.273,15.46-13.345,12.671
			c-4.989-1.534-9.278-5.509-13.238-8.733c-4.186-3.407-8.387-6.733-13.043-9.484c-8.453-4.993-17.465-6.127-26.729-8.904
			c-9.316-2.793-13.457-13.84-16.924-22.077c-3.79-9.001-6.642-18.355-10.147-27.463
			C174.541,167.423,169.705,168.715,170.865,171.729L170.865,171.729z"/>
	</g>
</g>
<g>
	<path fill="#87C540" d="M355.501,261.204c-1.736,6.676-1.736,15.022-5.206,21.7c5.206,1.668,8.678,3.338,13.884,0l-1.736-1.671
		c0-1.669,3.473-5.007,3.473-6.677c-1.736-3.338-5.206-6.677-8.679-8.346"/>
	<g>
		<path d="M353.09,260.539c-1.694,7.025-1.776,14.497-4.954,21.104c-0.718,1.494-0.125,3.143,1.494,3.673
			c5.763,1.885,10.305,2.9,15.811-0.252c1.381-0.791,1.664-2.813,0.506-3.927c-0.578-0.558-1.157-1.114-1.736-1.671
			c0.215,0.811,0.429,1.621,0.644,2.433c0.526-2.712,4.32-4.923,3.473-8.007c-1.158-4.208-6.213-7.911-9.828-9.84
			c-2.844-1.516-5.369,2.801-2.523,4.318c2.919,1.556,5.264,3.609,7.142,6.338c0.235,0.344-1.891,3.092-2.395,3.94
			c-1.597,2.69-0.217,4.189,1.689,6.023c0.168-1.309,0.337-2.617,0.506-3.927c-4.24,2.429-7.652,1.156-11.957-0.252
			c0.498,1.225,0.996,2.449,1.494,3.673c3.402-7.076,3.645-14.78,5.458-22.297C358.668,258.735,353.847,257.406,353.09,260.539
			L353.09,260.539z"/>
	</g>
</g>
<g>
	<path fill="#87C540" d="M349.524,310.134c-11.018-1.694-10.17,14.407-13.56,21.187c-2.542,3.391-4.237,5.085-7.627,6.78
		c-6.78,4.237-6.78,1.694-11.018,9.322c-7.627,16.948,12.608,25.913,22.882,16.102c10.093-9.639,16.654-20.621,25.713-36.149
		c5.933-10.17,12.423-7.919,3.101-11.309c-5.085-1.695-12.712-5.085-17.797-5.933"/>
	<g>
		<path d="M349.524,307.634c-7.345-0.768-10.801,4.894-12.641,11.164c-1.008,3.437-1.538,6.991-2.703,10.386
			c-1.512,4.4-7.21,7.065-11.091,8.93c-13.615,6.543-12.813,26.629,1.759,31.273c7.414,2.363,14.106-1.024,19.232-6.182
			c8.183-8.233,14.35-18.265,20.246-28.183c2.809-4.725,5.229-9.484,9.474-13.093c1.333-1.134,3.355-2.991,2.031-4.946
			c-1.52-2.244-4.978-2.923-7.368-3.747c-5.51-1.9-10.832-4.385-16.58-5.514c-3.149-0.618-4.492,4.201-1.33,4.822
			c7.007,1.375,14.399,4.215,20.919,7.128c0.662-2.324,0.582-3.022-0.238-2.095c-0.32,0.275-0.643,0.548-0.969,0.815
			c-0.986,0.82-1.896,1.701-2.78,2.63c-3.145,3.297-5.183,7.592-7.476,11.476c-4.687,7.936-9.57,15.778-15.515,22.845
			c-4.624,5.496-9.588,10.94-17.394,9.456c-6.999-1.332-10.075-7.694-8.311-14.231c1.881-6.969,7.611-8.236,13.073-11.606
			c5.226-3.226,7.299-8.206,8.624-13.875c1.206-5.153,2.139-13.174,9.036-12.453C352.73,312.969,352.697,307.966,349.524,307.634
			L349.524,307.634z"/>
	</g>
</g>
</svg>
